# xmcd
#
# Track frame offsets:
# 150
# 14386
# 33381
# 47660
# 63775
# 80096
# 93631
# 105310
# 120614
# 134278
# 148937
# 163890
# 175836
# 195495
# 210758
#
# Disc length: 3106 seconds
#
#
# Revision: 0
# Processed by: cddbd v1.5.2PL0 Copyright (c) Steve Scherf et al.
# Submitted via: FreeRIP 2.951 
#
DISCID=c80c200f
DTITLE=Daniel - Meu Reino Encantado
DYEAR=2006
DGENRE=sertanejo
TTITLE0=Vou_de_Fusca
TTITLE1=Bem_simplezinho
TTITLE2=Maschuca_Eu
TTITLE3=Sombra_Boa_e_agua_Fresca
TTITLE4=Nao_empura_nao
TTITLE5=Tampa_da_Panela
TTITLE6=A_Gata_do_Milenio
TTITLE7=Estourou_um_cano
TTITLE8=Peão_apaixonado
TTITLE9=Pode_passar_o_rodo
TTITLE10=Já_tá_no_grude
TTITLE11=Carro_e_mulher
TTITLE12=A_jiripoca_vai_piar
TTITLE13=Eu_me_amarei
TTITLE14=Brasil,Samba_e_forró
EXTD=colasex putaria e ladroes
EXTT0=
EXTT1=
EXTT2=
EXTT3=
EXTT4=
EXTT5=
EXTT6=
EXTT7=
EXTT8=
EXTT9=
EXTT10=
EXTT11=
EXTT12=
EXTT13=
EXTT14=
PLAYORDER=
